<svg xmlns="http://www.w3.org/2000/svg" width="24" height="24" fill="currentColor"><path fill="inherit" fill-rule="evenodd" d="M3 7a1 1 0 0 1 1-1h5a1 1 0 0 1 0 2H5v11h11v-4a1 1 0 1 1 2 0v5a1 1 0 0 1-1 1H4a1 1 0 0 1-1-1V7Z" clip-rule="evenodd"/><path fill="inherit" fill-rule="evenodd" d="M20.707 3.293a1 1 0 0 1 0 1.414l-9 9a1 1 0 0 1-1.414-1.414l9-9a1 1 0 0 1 1.414 0Z" clip-rule="evenodd"/><path fill="inherit" fill-rule="evenodd" d="M13 4a1 1 0 0 1 1-1h6a1 1 0 0 1 1 1v6a1 1 0 1 1-2 0V5h-5a1 1 0 0 1-1-1Z" clip-rule="evenodd"/></svg>