<svg xmlns="http://www.w3.org/2000/svg" width="24" height="24" fill="none"><path fill="currentColor" fill-rule="evenodd" d="M2 10a1 1 0 0 1 1-1h18a1 1 0 1 1 0 2H3a1 1 0 0 1-1-1Z" clip-rule="evenodd"/><path fill="currentColor" fill-rule="evenodd" d="M3.9 9.005a1 1 0 0 1 1.095.895l.91 9.1h12.19l.91-9.1a1 1 0 1 1 1.99.2l-1 10A1 1 0 0 1 19 21H5a1 1 0 0 1-.995-.9l-1-10a1 1 0 0 1 .896-1.095Z" clip-rule="evenodd"/><path fill="currentColor" fill-rule="evenodd" d="M8 13a1 1 0 0 1 1 1v2a1 1 0 1 1-2 0v-2a1 1 0 0 1 1-1ZM12 13a1 1 0 0 1 1 1v2a1 1 0 1 1-2 0v-2a1 1 0 0 1 1-1ZM16 13a1 1 0 0 1 1 1v2a1 1 0 1 1-2 0v-2a1 1 0 0 1 1-1ZM7.757 3.757A6 6 0 0 1 18 8v2a1 1 0 1 1-2 0V8a4 4 0 1 0-8 0v2a1 1 0 1 1-2 0V8a6 6 0 0 1 1.757-4.243Z" clip-rule="evenodd"/></svg>