<svg xmlns="http://www.w3.org/2000/svg" width="24" height="24" fill="currentColor"><path fill="inherit" fill-rule="evenodd" d="M7 12a1 1 0 0 1 1-1h.01a1 1 0 1 1 0 2H8a1 1 0 0 1-1-1Zm4 0a1 1 0 0 1 1-1h.01a1 1 0 1 1 0 2H12a1 1 0 0 1-1-1Zm4 0a1 1 0 0 1 1-1h.01a1 1 0 1 1 0 2H16a1 1 0 0 1-1-1Z" clip-rule="evenodd"/><path fill="inherit" fill-rule="evenodd" d="M4.754 15.404a1 1 0 0 1 .08.493L4.5 19.5l3.418-.407a1 1 0 0 1 .535.084l.215.099A7.963 7.963 0 0 0 12 20a8 8 0 1 0-8-8c0 1.142.238 2.222.665 3.2l.09.204Zm3.08 5.69A9.963 9.963 0 0 0 12 22c5.523 0 10-4.477 10-10S17.523 2 12 2 2 6.477 2 12c0 1.422.297 2.775.832 4l-.397 4.524a1 1 0 0 0 1.074 1.057l4.324-.488Z" clip-rule="evenodd"/></svg>