<svg xmlns="http://www.w3.org/2000/svg" width="24" height="24" fill="currentColor"><path fill="inherit" fill-rule="evenodd" d="M13.02 17.264a1 1 0 0 0-1.413 0l-1.415 1.414a3 3 0 0 1-4.242-4.243l1.414-1.414a1 1 0 1 0-1.414-1.414L4.536 13.02a5 5 0 0 0 7.07 7.07l1.415-1.413a1 1 0 0 0 0-1.415Zm3.536-4.95a1 1 0 1 0 1.415 1.414l2.12-2.121a5 5 0 0 0-7.07-7.071l-2.122 2.12a1 1 0 0 0 1.415 1.415l2.121-2.121a3 3 0 0 1 4.243 4.242l-2.122 2.122Z" clip-rule="evenodd"/><rect width="20" height="2" x="5.243" y="5.243" fill="inherit" rx="1" transform="rotate(45 5.243 5.243)"/></svg>