<svg xmlns="http://www.w3.org/2000/svg" width="24" height="24" fill="currentColor"><path fill="inherit" fill-rule="evenodd" d="M3 3a1 1 0 0 1 1-1h11a1 1 0 0 1 .707.293l5 5A1 1 0 0 1 21 8v13a1 1 0 0 1-1 1H4a1 1 0 0 1-1-1V3Zm2 1v16h14V8.414L14.586 4H5Z" clip-rule="evenodd"/><path fill="inherit" fill-rule="evenodd" d="M8 12a1 1 0 0 1 1-1h6a1 1 0 1 1 0 2H9a1 1 0 0 1-1-1ZM8 8a1 1 0 0 1 1-1h3a1 1 0 1 1 0 2H9a1 1 0 0 1-1-1ZM8 16a1 1 0 0 1 1-1h6a1 1 0 1 1 0 2H9a1 1 0 0 1-1-1Z" clip-rule="evenodd"/></svg>