<svg xmlns="http://www.w3.org/2000/svg" width="24" height="24" fill="currentColor"><path fill="inherit" fill-rule="evenodd" d="M5.636 5.636A3.636 3.636 0 0 1 12 3.231a3.636 3.636 0 0 1 5.877 4.223h3.214a.91.91 0 0 1 .909.91V12a.91.91 0 0 1-.91.91h-.908v8.18a.91.91 0 0 1-.91.91H4.728a.91.91 0 0 1-.909-.91v-8.18H2.91A.91.91 0 0 1 2 12V8.364a.91.91 0 0 1 .91-.91h3.213a3.62 3.62 0 0 1-.487-1.818Zm7.273 14.546h5.455v-7.273h-5.455v7.273Zm-1.818-7.273v7.273H5.636v-7.273h5.455Zm1.818-1.818h7.273V9.273h-7.273v1.818Zm-1.818-1.818v1.818H3.818V9.273h7.273Zm1.818-1.818h1.818a1.818 1.818 0 1 0-1.818-1.819v1.819Zm-1.818 0V5.636a1.818 1.818 0 1 0-1.818 1.819h1.818Z" clip-rule="evenodd"/></svg>