<svg xmlns="http://www.w3.org/2000/svg" width="24" height="24" fill="currentColor"><path fill="inherit" fill-rule="evenodd" d="M20 11.955a7.963 7.963 0 0 0-1.326-4.413c-.292-.44-.27-1.034.106-1.403.414-.406 1.09-.382 1.421.093A9.954 9.954 0 0 1 22 11.955c0 4.931-3.569 9.028-8.264 9.85-.574.1-1.07-.366-1.07-.949 0-.524.406-.955.92-1.058A8.003 8.003 0 0 0 20 11.955ZM5.894 18.643c.409-.402.39-1.062.018-1.498a8.001 8.001 0 0 1 5.09-13.128c.548-.068.998-.51.998-1.062s-.449-1.005-.999-.95C5.947 2.504 2 6.768 2 11.954c0 2.566.966 4.906 2.555 6.677.354.394.96.381 1.339.01Z" clip-rule="evenodd"/></svg>