<svg xmlns="http://www.w3.org/2000/svg" width="24" height="24" fill="currentColor"><path fill="inherit" fill-rule="evenodd" d="M10 7a1 1 0 0 1 1 1v6a1 1 0 1 1-2 0V8a1 1 0 0 1 1-1Z" clip-rule="evenodd"/><path fill="inherit" fill-rule="evenodd" d="M7 13a1 1 0 0 1 1 1v5h1v-5a1 1 0 1 1 2 0v6a1 1 0 0 1-1 1H7a1 1 0 0 1-1-1v-6a1 1 0 0 1 1-1ZM17 8a1 1 0 0 1 1-1 4 4 0 1 1 0 8 1 1 0 1 1 0-2 2 2 0 1 0 0-4 1 1 0 0 1-1-1Z" clip-rule="evenodd"/><path fill="inherit" fill-rule="evenodd" d="M18.472 3.118A1 1 0 0 1 19 4v15a1 1 0 0 1-1.64.768L11.638 15H3a1 1 0 0 1-1-1V8a1 1 0 0 1 1-1h8.697l5.748-3.832a1 1 0 0 1 1.027-.05ZM17 5.868l-4.445 2.964A1 1 0 0 1 12 9H4v4h8a1 1 0 0 1 .64.232L17 16.865V5.869Z" clip-rule="evenodd"/></svg>