<svg xmlns="http://www.w3.org/2000/svg" width="24" height="24" fill="currentColor"><path fill="inherit" d="M18.264 4.609a5.67 5.67 0 0 0-8.009 0L4.138 10.72a.21.21 0 0 0-.06.15c0 .056.02.11.06.15l.865.865a.21.21 0 0 0 .298 0l6.117-6.113a3.994 3.994 0 0 1 2.843-1.176c1.073 0 2.083.417 2.84 1.176.76.76 1.177 1.77 1.177 2.841a3.989 3.989 0 0 1-1.177 2.84l-6.234 6.233-1.01 1.01a2.423 2.423 0 0 1-3.424 0 2.402 2.402 0 0 1-.708-1.711c0-.647.25-1.254.708-1.711l6.185-6.183a.827.827 0 0 1 .583-.241h.003c.22 0 .424.086.579.241a.817.817 0 0 1 0 1.163l-5.056 5.05a.21.21 0 0 0-.06.15c0 .057.02.11.06.15l.865.865a.21.21 0 0 0 .298 0l5.053-5.053a2.448 2.448 0 0 0 .722-1.744c0-.658-.258-1.28-.722-1.743a2.473 2.473 0 0 0-3.492 0l-.6.602-5.583 5.58a4.037 4.037 0 0 0-1.19 2.876 4.06 4.06 0 0 0 4.066 4.06c1.04 0 2.08-.397 2.873-1.189l7.247-7.242a5.635 5.635 0 0 0 1.657-4.003 5.617 5.617 0 0 0-1.657-4.006Z"/></svg>