<svg xmlns="http://www.w3.org/2000/svg" width="24" height="24" fill="currentColor"><path fill="inherit" fill-rule="evenodd" d="M2.53 6.235a3 3 0 0 1 3-3h12.94a3 3 0 0 1 3 3v11.586a3 3 0 0 1-3 3H5.53a3 3 0 0 1-3-3V6.235Zm3-1a1 1 0 0 0-1 1V17.34l1.53-2.11a3 3 0 0 1 4.38-.519l1.061.91 2.6-3.87a3 3 0 0 1 4.568-.49l.802.77V6.234a1 1 0 0 0-1-1H5.529Zm13.94 9.568-2.186-2.1a1 1 0 0 0-1.522.164l-3.103 4.615a1.2 1.2 0 0 1-1.776.242L9.14 16.231a1 1 0 0 0-1.46.172l-1.753 2.418H18.47a1 1 0 0 0 1-1v-3.018Z" clip-rule="evenodd"/><path fill-rule="evenodd" d="M9 10a1 1 0 1 0 0-2 1 1 0 0 0 0 2Zm0 2a3 3 0 1 0 0-6 3 3 0 0 0 0 6Z" clip-rule="evenodd"/></svg>