<svg xmlns="http://www.w3.org/2000/svg" width="24" height="24" fill="currentColor"><path fill="inherit" fill-rule="evenodd" d="M4.433 2h4.134c.24 0 .472 0 .67.016.216.018.471.06.728.19.357.182.647.472.829.829.13.257.172.512.19.729.016.197.016.43.016.669v4.134c0 .24 0 .472-.016.67-.018.216-.06.471-.19.728a1.895 1.895 0 0 1-.829.829 1.915 1.915 0 0 1-.729.19C9.04 11 8.806 11 8.567 11H4.433c-.24 0-.472 0-.67-.016a1.915 1.915 0 0 1-.728-.19 1.895 1.895 0 0 1-.828-.829 1.915 1.915 0 0 1-.19-.729A8.697 8.697 0 0 1 2 8.567V4.433c0-.24 0-.472.016-.67.018-.216.06-.471.19-.728a1.89 1.89 0 0 1 .829-.828c.257-.131.512-.173.729-.19C3.96 2 4.194 2 4.433 2Zm-.527 1.906-.002.012a7.76 7.76 0 0 0-.01.545v4.074a7.76 7.76 0 0 0 .012.557l.012.002c.11.009.264.01.545.01h4.074a7.76 7.76 0 0 0 .557-.012l.002-.012c.009-.11.01-.264.01-.545V4.463a7.76 7.76 0 0 0-.012-.557l-.012-.002a7.76 7.76 0 0 0-.545-.01H4.463a7.76 7.76 0 0 0-.557.012ZM15.433 2h4.134c.24 0 .472 0 .67.016.216.018.471.06.729.19a1.9 1.9 0 0 1 .828.829c.13.257.172.512.19.729.016.197.016.43.016.669v4.134c0 .24 0 .472-.016.67-.018.216-.06.471-.19.728a1.895 1.895 0 0 1-.829.829 1.916 1.916 0 0 1-.729.19c-.197.016-.43.016-.669.016h-4.134c-.24 0-.472 0-.67-.016a1.916 1.916 0 0 1-.729-.19 1.895 1.895 0 0 1-.828-.829 1.915 1.915 0 0 1-.19-.729C13 9.04 13 8.806 13 8.567V4.433c0-.24 0-.472.016-.67.018-.216.06-.471.19-.728a1.89 1.89 0 0 1 .829-.828c.257-.131.512-.173.729-.19.197-.017.43-.017.669-.017Zm-.527 1.906-.002.012c-.008.11-.01.264-.01.545v4.074c0 .28.002.434.01.545l.002.012.012.002c.11.009.264.01.545.01h4.074a7.758 7.758 0 0 0 .557-.012l.002-.012c.009-.11.01-.264.01-.545V4.463c0-.28-.002-.434-.01-.545l-.002-.012-.012-.002a7.758 7.758 0 0 0-.545-.01h-4.074a7.758 7.758 0 0 0-.557.012ZM4.433 13h4.134c.24 0 .472 0 .67.016.216.018.471.06.728.19.357.182.647.472.829.829.13.257.172.512.19.729.016.197.016.43.016.669v4.134c0 .24 0 .472-.016.67-.018.216-.06.471-.19.729a1.895 1.895 0 0 1-.829.828 1.915 1.915 0 0 1-.729.19C9.04 22 8.806 22 8.567 22H4.433c-.24 0-.472 0-.67-.016a1.915 1.915 0 0 1-.728-.19 1.895 1.895 0 0 1-.828-.829 1.916 1.916 0 0 1-.19-.729A8.696 8.696 0 0 1 2 19.567v-4.134c0-.24 0-.472.016-.67.018-.216.06-.471.19-.729a1.9 1.9 0 0 1 .829-.828c.257-.13.512-.172.729-.19.197-.016.43-.016.669-.016Zm-.527 1.906-.002.012c-.009.11-.01.264-.01.545v4.074a7.758 7.758 0 0 0 .012.557l.012.002c.11.009.264.01.545.01h4.074c.28 0 .434-.002.545-.01l.012-.002.002-.012c.009-.11.01-.264.01-.545v-4.074a7.758 7.758 0 0 0-.012-.557l-.012-.002a7.765 7.765 0 0 0-.545-.01H4.463c-.28 0-.434.002-.545.01l-.012.002ZM13.947 13c.524 0 .948.424.948.947v3.316h2.842c.523 0 .947.424.947.947v1.895h2.369a.947.947 0 1 1 0 1.895h-3.316a.947.947 0 0 1-.948-.947v-1.895h-1.894v1.895a.947.947 0 1 1-1.895 0v-7.106c0-.523.424-.947.947-.947Zm3.79.947c0-.523.424-.947.947-.947h2.369c.523 0 .947.424.947.947v2.369a.947.947 0 1 1-1.895 0v-1.421h-1.42a.947.947 0 0 1-.948-.948Z" clip-rule="evenodd"/></svg>