<svg xmlns="http://www.w3.org/2000/svg" width="24" height="24" fill="currentColor"><path fill="inherit" fill-rule="evenodd" d="M18.085 3.009c1.56-.717 3.239.735 2.754 2.382l-4.042 13.744a2 2 0 0 1-2.814 1.225l-2.24-1.12-1.238 1.416C9.29 22.046 7 21.186 7 19.339v-3.75a2 2 0 0 1 1.029-1.749l3.985-2.214a1 1 0 0 1 .972 1.748L9 15.588v3.75l1.239-1.415a2 2 0 0 1 2.4-.472l2.239 1.12 4.043-13.745-14.736 6.77 1.811 1.036a1 1 0 1 1-.992 1.736l-1.812-1.035c-1.412-.807-1.321-2.874.158-3.554l14.736-6.77Z" clip-rule="evenodd"/></svg>