<svg xmlns="http://www.w3.org/2000/svg" width="24" height="24" fill="currentColor"><path fill="currentColor" fill-rule="evenodd" d="M15.293 12.293a1 1 0 0 1 1.414 0l4 4a1 1 0 0 1 0 1.414l-4 4a1 1 0 0 1-1.414-1.414L18.586 17l-3.293-3.293a1 1 0 0 1 0-1.414Z" clip-rule="evenodd"/><path fill="currentColor" fill-rule="evenodd" d="M4 17a1 1 0 0 1 1-1h15a1 1 0 1 1 0 2H5a1 1 0 0 1-1-1ZM8.707 2.293a1 1 0 0 1 0 1.414L5.414 7l3.293 3.293a1 1 0 1 1-1.414 1.414l-4-4a1 1 0 0 1 0-1.414l4-4a1 1 0 0 1 1.414 0Z" clip-rule="evenodd"/><path fill="currentColor" fill-rule="evenodd" d="M3 7a1 1 0 0 1 1-1h15a1 1 0 1 1 0 2H4a1 1 0 0 1-1-1Z" clip-rule="evenodd"/></svg>