<svg xmlns="http://www.w3.org/2000/svg" width="24" height="24" fill="currentColor"><path fill="inherit" fill-rule="evenodd" d="M10.707 13.293a1 1 0 0 1 0 1.414l-6 6a1 1 0 0 1-1.414-1.414l6-6a1 1 0 0 1 1.414 0Z" clip-rule="evenodd"/><path fill="inherit" fill-rule="evenodd" d="M4 14a1 1 0 0 1 1-1h5a1 1 0 0 1 1 1v5a1 1 0 1 1-2 0v-4H5a1 1 0 0 1-1-1ZM20.707 3.293a1 1 0 0 1 0 1.414l-6 6a1 1 0 0 1-1.414-1.414l6-6a1 1 0 0 1 1.414 0Z" clip-rule="evenodd"/><path fill="inherit" fill-rule="evenodd" d="M14 4a1 1 0 0 1 1 1v4h4a1 1 0 1 1 0 2h-5a1 1 0 0 1-1-1V5a1 1 0 0 1 1-1Z" clip-rule="evenodd"/></svg>