<svg xmlns="http://www.w3.org/2000/svg" width="24" height="24" fill="none"><path fill="currentColor" fill-rule="evenodd" d="M2 4a1 1 0 0 1 1-1h18a1 1 0 0 1 1 1v16a1 1 0 0 1-1 1H3a1 1 0 0 1-1-1V4Zm2 1v14h16V5H4Z" clip-rule="evenodd"/><path fill="currentColor" fill-rule="evenodd" d="M8 1a1 1 0 0 1 1 1v4a1 1 0 0 1-2 0V2a1 1 0 0 1 1-1ZM16 1a1 1 0 0 1 1 1v4a1 1 0 1 1-2 0V2a1 1 0 0 1 1-1ZM2 10a1 1 0 0 1 1-1h18a1 1 0 1 1 0 2H3a1 1 0 0 1-1-1Z" clip-rule="evenodd"/><path fill="currentColor" d="M4 11h16v8H4z"/></svg>