<svg xmlns="http://www.w3.org/2000/svg" width="24" height="24" fill="none"><path fill="#262626" d="M21 12a8.97 8.97 0 0 1-2.546 6.272A8.973 8.973 0 0 1 12 21a8.973 8.973 0 0 1-6.454-2.728A9 9 0 1 1 21 12Z"/><path fill="#262626" fill-rule="evenodd" d="M12 4a8 8 0 1 0 0 16 8 8 0 0 0 0-16ZM2 12C2 6.477 6.477 2 12 2s10 4.477 10 10a9.97 9.97 0 0 1-2.829 6.97A9.973 9.973 0 0 1 12 22a9.973 9.973 0 0 1-7.171-3.03A9.97 9.97 0 0 1 2 12Z" clip-rule="evenodd"/><path fill="#fff" fill-rule="evenodd" d="M12 7a2 2 0 1 0 0 4 2 2 0 0 0 0-4ZM8 9a4 4 0 1 1 8 0 4 4 0 0 1-8 0Z" clip-rule="evenodd"/><path fill="#fff" d="M17.737 17.575a1.075 1.075 0 0 0-.104-1.595A8.964 8.964 0 0 0 12 14a8.964 8.964 0 0 0-5.633 1.98 1.075 1.075 0 0 0-.104 1.595c.352.362.924.317 1.315-.002A6.97 6.97 0 0 1 12 16a6.97 6.97 0 0 1 4.422 1.573c.39.319.963.364 1.315.002ZM4.84 18.982ZM19.16 18.982l.011-.013.015-.014a.962.962 0 0 1-.027.027Z"/></svg>