<svg xmlns="http://www.w3.org/2000/svg" width="24" height="24" fill="none"><path fill="currentColor" d="m5.827 21.5 1.18-6.876L2 9.756l6.91-1L12 2.5l3.09 6.255 6.91 1-5.007 4.87 1.18 6.875-6.166-3.246-6.18 3.246Z"/><path fill="currentColor" fill-rule="evenodd" d="M12 1.5a1 1 0 0 1 .897.557l2.857 5.784 6.39.924a1 1 0 0 1 .553 1.707l-4.63 4.503 1.092 6.356a1 1 0 0 1-1.452 1.054l-5.7-3.001-5.715 3.001a1 1 0 0 1-1.45-1.054l1.09-6.357-4.63-4.501a1 1 0 0 1 .555-1.707l6.39-.924 2.856-5.785A1 1 0 0 1 12 1.5Zm0 3.258-2.193 4.44a1 1 0 0 1-.754.548l-4.9.709 3.551 3.452a1 1 0 0 1 .289.886l-.838 4.88 4.387-2.304a1 1 0 0 1 .93 0l4.372 2.302-.837-4.877a1 1 0 0 1 .289-.886l3.551-3.454-4.9-.71a1 1 0 0 1-.754-.546L12 4.758Z" clip-rule="evenodd"/></svg>