<svg xmlns="http://www.w3.org/2000/svg" width="24" height="24" fill="none"><circle cx="12" cy="12" r="12" fill="#E3FF34"/><path fill="#262626" d="M3.875 20.83C5.63 18.454 8.614 16.89 12 16.89s6.37 1.565 8.125 3.942c-.328.302-.674.586-1.034.85-1.484-2.057-4.062-3.459-7.091-3.459-3.03 0-5.607 1.402-7.091 3.46-.36-.265-.706-.549-1.034-.851Z"/><path fill="#000" fill-rule="evenodd" d="M12 15.111a5.333 5.333 0 1 0 0-10.667 5.333 5.333 0 0 0 0 10.667Zm0 1.333a6.667 6.667 0 1 0 0-13.333 6.667 6.667 0 0 0 0 13.333Z" clip-rule="evenodd"/><path fill="#262626" d="M10.667 9.333a.889.889 0 1 1-1.778 0 .889.889 0 0 1 1.778 0ZM15.111 9.333a.889.889 0 1 1-1.778 0 .889.889 0 0 1 1.778 0Z"/><path fill="#262626" fill-rule="evenodd" d="M11.111 13.333a.444.444 0 1 0 0-.889.444.444 0 0 0 0 .89Zm0 .89a1.333 1.333 0 1 0 0-2.667 1.333 1.333 0 0 0 0 2.666Z" clip-rule="evenodd"/><path fill="#262626" fill-rule="evenodd" d="M6.667 12.444h3.555v.89H6.667a.444.444 0 0 1 0-.89Z" clip-rule="evenodd"/></svg>