<svg xmlns="http://www.w3.org/2000/svg" width="40" height="40" fill="none"><circle cx="20" cy="20" r="20" fill="#E3FF34"/><path fill="#262626" d="M6.458 34.718c2.925-3.962 7.899-6.57 13.542-6.57s10.617 2.608 13.541 6.57c-.547.504-1.122.978-1.723 1.418-2.473-3.43-6.77-5.766-11.818-5.766-5.05 0-9.345 2.337-11.818 5.766-.601-.44-1.177-.914-1.724-1.418Z"/><path fill="#000" fill-rule="evenodd" d="M20 25.185a8.889 8.889 0 1 0 0-17.777 8.889 8.889 0 0 0 0 17.777Zm0 2.222c6.137 0 11.111-4.974 11.111-11.11 0-6.137-4.974-11.112-11.111-11.112-6.136 0-11.111 4.975-11.111 11.111 0 6.137 4.975 11.111 11.111 11.111Z" clip-rule="evenodd"/><path fill="#262626" d="M17.778 15.556a1.481 1.481 0 1 1-2.963 0 1.481 1.481 0 0 1 2.963 0ZM25.185 15.556a1.481 1.481 0 1 1-2.963 0 1.481 1.481 0 0 1 2.963 0Z"/><path fill="#262626" fill-rule="evenodd" d="M18.518 22.222a.74.74 0 1 0 0-1.481.74.74 0 0 0 0 1.481Zm0 1.482a2.222 2.222 0 1 0 0-4.445 2.222 2.222 0 0 0 0 4.445Z" clip-rule="evenodd"/><path fill="#262626" fill-rule="evenodd" d="M11.111 20.74h5.926v1.482h-5.926a.74.74 0 1 1 0-1.481Z" clip-rule="evenodd"/></svg>