<svg viewBox="0 0 48 48" width="24" height="24" fill="none" xmlns="http://www.w3.org/2000/svg"><g clip-path="url(#a)"><path d="M0 24C0 10.745 10.745 0 24 0s24 10.745 24 24-10.745 24-24 24S0 37.255 0 24Z" fill="#591BDC"/><path d="M15 17.5a8.5 8.5 0 0 1 17 0v2a8.5 8.5 0 0 1-17 0v-2Z" fill="#FAFFFC"/><ellipse cx="24" cy="56" rx="21" ry="24" fill="#E3FF34"/></g><defs><clipPath id="a"><path d="M0 24C0 10.745 10.745 0 24 0s24 10.745 24 24-10.745 24-24 24S0 37.255 0 24Z" fill="#fff"/></clipPath></defs></svg>