<svg width="68" height="24" viewBox="0 0 68 24" fill="none" xmlns="http://www.w3.org/2000/svg"><path d="M22.385 5.84c.262.261.409.617.409.988v17.108H27.2V5.858c0-.92-.365-1.8-1.013-2.45L22.778 0l-3.116 3.117 2.723 2.722ZM7.744 5.334c.262-.262.617-.409.989-.409H17V.518H8.283A4.722 4.722 0 0 0 4.945 1.9L1.383 5.463A4.722 4.722 0 0 0 0 8.8v11.55a3.463 3.463 0 0 0 3.463 3.463h14.796v-9.238c0-.918-.365-1.8-1.014-2.448l-3.41-3.409-3.115 3.116 2.723 2.723c.261.262.409.617.409.989v3.86H4.873a.466.466 0 0 1-.466-.466V9.25c0-.372.148-.727.41-.989l2.927-2.928ZM41.61 5.198a.931.931 0 0 0-.659-.273H30.916V.518h10.812c.918 0 1.8.365 2.448 1.013l3.041 3.042a3.464 3.464 0 0 1 1.014 2.448v3.056a3.462 3.462 0 0 1-2.1 3.182l-10.84 4.647a.465.465 0 0 0-.282.428v1.073h13.537v4.407H30.6v-6.41c0-1.386.826-2.638 2.1-3.183l11.123-4.768V7.798a.931.931 0 0 0-.274-.66l-1.94-1.94ZM61.98 4.925c.246 0 .483.098.658.273l.681.682a.931.931 0 0 1 .274.658v4.369H68V5.76c0-.918-.365-1.8-1.014-2.448l-1.782-1.782A3.466 3.466 0 0 0 62.756.518H51.341v4.407H61.98Z" fill="#000"/><path d="M63.593 18.174v-.063l-5.65-5.652 3.115-3.115 5.928 5.927A3.463 3.463 0 0 1 68 17.72v.846c0 .918-.365 1.8-1.014 2.448l-1.782 1.782a3.463 3.463 0 0 1-2.448 1.014H51v-4.407h10.98a.931.931 0 0 0 .658-.274l.955-.954Z" fill="#000"/></svg>