<svg xmlns="http://www.w3.org/2000/svg" width="24" height="24" fill="none"><path fill="#E3FF34" d="M12 21a9 9 0 1 0 0-18 9 9 0 0 0 0 18Z"/><path fill="#262626" fill-rule="evenodd" d="M12 4a8 8 0 1 0 0 16 8 8 0 0 0 0-16ZM2 12C2 6.477 6.477 2 12 2s10 4.477 10 10-4.477 10-10 10S2 17.523 2 12Z" clip-rule="evenodd"/><path fill="#262626" fill-rule="evenodd" d="M17.707 7.793a1 1 0 0 1 0 1.414l-6 6a1 1 0 0 1-1.414 0l-3-3a1 1 0 1 1 1.414-1.414L11 13.086l5.293-5.293a1 1 0 0 1 1.414 0Z" clip-rule="evenodd"/></svg>