<svg xmlns="http://www.w3.org/2000/svg" width="24" height="24" fill="none"><path fill="#E3FF34" d="M5 4h14v16H5z"/><path fill="#262626" fill-rule="evenodd" d="M3 3a1 1 0 0 1 1-1h16a1 1 0 0 1 1 1v18a1 1 0 0 1-1 1H4a1 1 0 0 1-1-1V3Zm2 1v16h14V4H5Z" clip-rule="evenodd"/><path fill="#262626" fill-rule="evenodd" d="M7 7a1 1 0 0 1 1-1h2a1 1 0 0 1 1 1v2a1 1 0 0 1-1 1H8a1 1 0 0 1-1-1V7ZM7 13a1 1 0 0 1 1-1h8a1 1 0 1 1 0 2H8a1 1 0 0 1-1-1ZM13 8a1 1 0 0 1 1-1h2a1 1 0 1 1 0 2h-2a1 1 0 0 1-1-1ZM7 17a1 1 0 0 1 1-1h8a1 1 0 1 1 0 2H8a1 1 0 0 1-1-1Z" clip-rule="evenodd"/></svg>