<svg xmlns="http://www.w3.org/2000/svg" width="24" height="24" fill="none"><circle cx="12" cy="12" r="10" fill="#E3FF34"/><path fill="#262626" fill-rule="evenodd" d="M15.677 13.103a2 2 0 0 1 1.881.335l2.076 1.66a1 1 0 0 1-1.25 1.562L16.31 15l-2.01.67-.296.89.285-.056a2 2 0 0 1 1.806.547l1.122 1.121a1 1 0 0 1-1.414 1.414l-1.122-1.121-.285.057c-1.506.301-2.775-1.137-2.29-2.594l.297-.89a2 2 0 0 1 1.265-1.265l2.01-.67ZM17.296 4.017a1 1 0 0 1 1.165.802l.384 2.082a1.66 1.66 0 0 1-.917 1.797l-1.63.779a1.66 1.66 0 0 1-2.553 1.533l-1.047-.676-.266.469a1.658 1.658 0 0 1-2.996-.251l-.086-.234-.363-.198-1.3 1.047-.913 1.689.585 3.234a1.659 1.659 0 0 1-.776 1.712l-1.066.644a1 1 0 1 1-1.034-1.712l.865-.522-.564-3.119a1.66 1.66 0 0 1 .174-1.084l1-1.851s.001 0 0 0c.105-.194.248-.365.419-.504l1.535-1.236a1.66 1.66 0 0 1 1.837-.162l.676.371c.252.139.462.34.612.582l.101-.18a1.66 1.66 0 0 1 2.342-.57l.807.52a1.659 1.659 0 0 1 .918-1.196l1.625-.777-.336-1.824a1 1 0 0 1 .802-1.165ZM5.549 16.09Zm2.17-4.983Z" clip-rule="evenodd"/><path fill="#262626" fill-rule="evenodd" d="M12 4a8 8 0 1 0 0 16 8 8 0 0 0 0-16ZM2 12C2 6.477 6.477 2 12 2s10 4.477 10 10-4.477 10-10 10S2 17.523 2 12Z" clip-rule="evenodd"/></svg>