<svg xmlns="http://www.w3.org/2000/svg" width="24" height="24" fill="none"><path fill="#262626" fill-rule="evenodd" d="M8.222 7v1-1h.061l.128.006c.108.005.259.016.444.037.37.04.884.122 1.478.284 1.181.322 2.716.974 4.04 2.3 1.326 1.324 1.978 2.859 2.3 4.04.162.594.243 1.107.284 1.478a7.527 7.527 0 0 1 .042.573v.039l.001.013v.006s0 .002-1 .002h1a1 1 0 0 1-.594.914l-14 6.222a1 1 0 0 1-1.32-1.32l6.222-14A1 1 0 0 1 8.222 7Zm6.72 8.153a7.888 7.888 0 0 0-.198-.96c-.261-.957-.776-2.144-1.784-3.153-1.009-1.008-2.197-1.523-3.154-1.784a7.889 7.889 0 0 0-.96-.199l-.416.937c.196.066.409.142.631.227.924.354 2.166.925 2.98 1.739.813.813 1.384 2.054 1.738 2.979.085.222.16.435.227.63l.937-.416Zm-2.773 1.233a15.13 15.13 0 0 0-.258-.732c-.34-.887-.79-1.785-1.285-2.28-.495-.496-1.393-.945-2.28-1.285a15.104 15.104 0 0 0-.732-.258l-3.644 8.2 8.2-3.645ZM12.236 1.079a1 1 0 0 1 .531 1.31l-.846 2a1 1 0 0 1-1.842-.779l.846-2a1 1 0 0 1 1.31-.531Zm7.087 3.599a1 1 0 0 1 0 1.414l-2.116 2.115a1 1 0 1 1-1.414-1.414l2.115-2.115a1 1 0 0 1 1.415 0Zm3.598 7.086a1 1 0 0 1-.531 1.31l-2 .847a1 1 0 1 1-.78-1.842l2-.846a1 1 0 0 1 1.311.531Z" clip-rule="evenodd"/><path fill="#E3FF34" d="M14.744 14.194c.1.368.161.697.199.96l-.937.416a17.06 17.06 0 0 0-.227-.631c-.354-.925-.925-2.166-1.739-2.98-.813-.813-2.055-1.384-2.979-1.738-.222-.085-.435-.16-.63-.227l.416-.937c.262.038.59.099.96.2.957.26 2.144.775 3.153 1.783 1.008 1.009 1.522 2.197 1.784 3.154ZM11.911 15.654c.101.264.188.513.258.732l-8.2 3.644 3.645-8.2c.219.072.468.158.732.259.887.34 1.785.79 2.28 1.285.496.495.945 1.393 1.285 2.28Z"/></svg>