<svg xmlns="http://www.w3.org/2000/svg" width="24" height="24" fill="none"><path fill="#262626" fill-rule="evenodd" d="M1.998 9.227A6 6 0 0 1 7.948 4h7.578a6 6 0 0 1 5.95 5.227l.968 7.452a3.542 3.542 0 0 1-6.133 2.839L13.113 16H10.36l-3.198 3.518a3.542 3.542 0 0 1-6.133-2.839l.968-7.452ZM7.948 6A4 4 0 0 0 3.98 9.485l-.968 7.452a1.542 1.542 0 0 0 2.67 1.235l3.496-3.845a1 1 0 0 1 .74-.327h3.636a1 1 0 0 1 .74.327l3.495 3.845a1.542 1.542 0 0 0 2.67-1.235l-.967-7.452A4 4 0 0 0 15.526 6H7.948Z" clip-rule="evenodd"/><path fill="#E3FF34" d="M3.98 9.485A4 4 0 0 1 7.949 6h7.578a4 4 0 0 1 3.967 3.485l.967 7.452a1.542 1.542 0 0 1-2.67 1.235l-3.495-3.845a1 1 0 0 0-.74-.327H9.919a1 1 0 0 0-.74.327l-3.496 3.845a1.542 1.542 0 0 1-2.67-1.235l.968-7.452Z"/><path fill="#262626" fill-rule="evenodd" d="M12.737 10.5a1 1 0 0 1 1-1h3a1 1 0 1 1 0 2h-3a1 1 0 0 1-1-1Z" clip-rule="evenodd"/><path fill="#262626" d="M8.237 8a1 1 0 0 0-1 1v.5h-.5a1 1 0 0 0 0 2h.5v.5a1 1 0 1 0 2 0v-.5h.5a1 1 0 0 0 0-2h-.5V9a1 1 0 0 0-1-1Z"/></svg>