<svg xmlns="http://www.w3.org/2000/svg" width="24" height="24" fill="none"><path fill="#E3FF34" d="M8 4a5 5 0 0 0-4.001 7.998L12 20l8.002-8.002A5 5 0 0 0 12 6 4.992 4.992 0 0 0 8 4Z"/><path fill="#262626" fill-rule="evenodd" d="M8 5a4 4 0 0 0-3.241 6.344L12 18.586l7.241-7.242A4 4 0 0 0 12.8 6.6a1 1 0 0 1-1.598 0A3.992 3.992 0 0 0 8 5ZM2 9a6 6 0 0 1 10-4.472 6 6 0 0 1 8.801 8.07.992.992 0 0 1-.092.108l-8.002 8.001a1 1 0 0 1-1.414 0L3.29 12.706a.989.989 0 0 1-.092-.107A5.978 5.978 0 0 1 2 9Z" clip-rule="evenodd"/></svg>