<svg xmlns="http://www.w3.org/2000/svg" width="24" height="24" fill="none"><path fill="#E3FF34" stroke="#262626" stroke-linecap="round" stroke-linejoin="round" stroke-width="2" d="M21 4H3v16h18V4Z"/><path fill="#262626" fill-rule="evenodd" d="M2 4a1 1 0 0 1 1-1h18a1 1 0 0 1 1 1v16a1 1 0 0 1-1 1H3a1 1 0 0 1-1-1V4Zm2 1v14h16V5H4Z" clip-rule="evenodd"/><path fill="#262626" fill-rule="evenodd" d="M2.253 4.336a1 1 0 0 1 1.411-.083L12 11.663l8.336-7.41a1 1 0 0 1 1.328 1.494l-9 8a1 1 0 0 1-1.328 0l-9-8a1 1 0 0 1-.083-1.411Z" clip-rule="evenodd"/></svg>