<svg xmlns="http://www.w3.org/2000/svg" width="24" height="24" fill="none"><path fill="#262626" fill-rule="evenodd" d="M18 7a1 1 0 1 0 0 2 1 1 0 0 0 0-2Zm-3 1a3 3 0 1 1 6 0 3 3 0 0 1-6 0ZM11 4a1 1 0 1 0 0 2 1 1 0 0 0 0-2ZM8 5a3 3 0 1 1 6 0 3 3 0 0 1-6 0ZM1 10a1 1 0 0 1 1-1h3a1 1 0 0 1 1 1v9a1 1 0 0 1-1 1H2a1 1 0 0 1-1-1v-9Zm2 1v7h1v-7H3Z" clip-rule="evenodd"/><path fill="#262626" fill-rule="evenodd" d="M4 11a1 1 0 0 1 1-1h1c1.634 0 3.14.561 4.33 1.5h2.17a4.49 4.49 0 0 1 3.354 1.5H19c1.728 0 3.25.877 4.147 2.206a1 1 0 0 1-.102 1.246A14.462 14.462 0 0 1 12.5 21c-2.98 0-5.752-.9-8.056-2.442A1 1 0 0 1 4 17.727V11Zm12.888 4c.073.322.112.657.112 1a1 1 0 1 1-2 0 2.496 2.496 0 0 0-2.5-2.5H9.969a1 1 0 0 1-.662-.25A4.978 4.978 0 0 0 6 12v5.18A12.437 12.437 0 0 0 12.5 19c3.256 0 6.22-1.244 8.445-3.284A2.987 2.987 0 0 0 19 15h-2.112Z" clip-rule="evenodd"/><path fill="#262626" fill-rule="evenodd" d="M8 16a1 1 0 0 1 1-1h7a1 1 0 1 1 0 2H9a1 1 0 0 1-1-1Z" clip-rule="evenodd"/><path fill="#E3FF34" d="M10 5a1 1 0 1 1 2 0 1 1 0 0 1-2 0ZM17 8a1 1 0 1 1 2 0 1 1 0 0 1-2 0ZM3 11h1v7H3zM17 16a4.51 4.51 0 0 0-.112-1H19c.742 0 1.42.269 1.945.716A12.452 12.452 0 0 1 12.5 19c-2.382 0-4.607-.666-6.5-1.82V12c1.269 0 2.425.471 3.307 1.25a1 1 0 0 0 .662.25H12.5A2.496 2.496 0 0 1 15 16a1 1 0 1 0 2 0Z"/></svg>