<svg xmlns="http://www.w3.org/2000/svg" width="24" height="24" fill="none"><rect width="16.941" height="15.586" x="3.529" y="4.235" fill="#E3FF34" stroke="#262626" stroke-width="2" rx="2"/><path fill="#262626" fill-rule="evenodd" d="M11.332 8.792a2.531 2.531 0 0 1-2.538 2.524 2.531 2.531 0 0 1-2.538-2.524 2.53 2.53 0 0 1 2.538-2.524 2.531 2.531 0 0 1 2.538 2.524Zm-1.27 0c0 .697-.567 1.262-1.268 1.262-.701 0-1.27-.565-1.27-1.262 0-.697.569-1.262 1.27-1.262.7 0 1.269.565 1.269 1.262ZM17.284 12.704a1 1 0 0 0-1.522.163l-3.103 4.615a1.2 1.2 0 0 1-1.776.242L9.14 16.231a1 1 0 0 0-1.46.172L5.02 20.07 3.4 18.895 6.06 15.23a3 3 0 0 1 4.38-.518l1.061.91 2.6-3.87.83.558-.83-.557a3 3 0 0 1 4.568-.491l2.518 2.418-1.385 1.442-2.518-2.417Z" clip-rule="evenodd"/><rect width="16.941" height="15.586" x="3.529" y="4.235" stroke="#262626" stroke-width="2" rx="2"/></svg>