<svg xmlns="http://www.w3.org/2000/svg" width="24" height="24" fill="none"><circle cx="12" cy="12" r="9" fill="#E3FF34"/><path fill="#262626" fill-rule="evenodd" d="M12 4a8 8 0 0 0-6.454 12.728A8.975 8.975 0 0 1 12 14a8.975 8.975 0 0 1 6.454 2.728A8 8 0 0 0 12 4Zm5.078 14.182A6.978 6.978 0 0 0 12 16a6.978 6.978 0 0 0-5.078 2.182A7.964 7.964 0 0 0 12 20a7.964 7.964 0 0 0 5.078-1.818ZM2 12C2 6.477 6.477 2 12 2s10 4.477 10 10a9.97 9.97 0 0 1-2.829 6.97A9.973 9.973 0 0 1 12 22a9.973 9.973 0 0 1-7.171-3.03A9.97 9.97 0 0 1 2 12Zm10-5a2 2 0 1 0 0 4 2 2 0 0 0 0-4ZM8 9a4 4 0 1 1 8 0 4 4 0 0 1-8 0Z" clip-rule="evenodd"/></svg>