<svg xmlns="http://www.w3.org/2000/svg" width="24" height="24" fill="none"><path fill="#262626" fill-rule="evenodd" d="M17 16a2 2 0 1 0 0 4 2 2 0 0 0 0-4Zm-2.828-.828a4 4 0 1 1 5.656 5.656 4 4 0 0 1-5.656-5.656ZM17 4a2 2 0 1 0 0 4 2 2 0 0 0 0-4Zm-2.828-.828a4 4 0 1 1 5.656 5.656 4 4 0 0 1-5.656-5.656ZM6 10a2 2 0 1 0 0 4 2 2 0 0 0 0-4Zm-2.828-.828a4 4 0 1 1 5.656 5.656 4 4 0 0 1-5.656-5.656Z" clip-rule="evenodd"/><path fill="#262626" fill-rule="evenodd" d="M15.29 7.04a1 1 0 0 1-.43 1.348l-5.802 3a1 1 0 0 1-.918-1.776l5.802-3a1 1 0 0 1 1.347.429ZM7.71 13.04a1 1 0 0 1 1.348-.428l5.802 3a1 1 0 0 1-.918 1.776l-5.802-3a1 1 0 0 1-.43-1.347Z" clip-rule="evenodd"/><circle cx="17" cy="6" r="2" fill="#E3FF34"/><circle cx="6" cy="12" r="2" fill="#E3FF34"/><circle cx="17" cy="18" r="2" fill="#E3FF34"/></svg>