<svg xmlns="http://www.w3.org/2000/svg" width="24" height="24" fill="none"><rect width="10.462" height="19.856" x="15.322" y="1.335" fill="#E3FF34" rx="5.231" transform="rotate(45 15.322 1.335)"/><path fill="#262626" fill-rule="evenodd" d="M18.749 5.251a4.272 4.272 0 0 0-6.042 0l-2.485 2.486a1 1 0 1 1-1.414-1.415l2.485-2.485a6.272 6.272 0 0 1 8.87 8.87l-2.485 2.485a1 1 0 0 1-1.415-1.414l2.486-2.485a4.272 4.272 0 0 0 0-6.042ZM7.737 8.808a1 1 0 0 1 0 1.414L5.25 12.707a4.272 4.272 0 1 0 6.042 6.042l2.485-2.485a1 1 0 1 1 1.414 1.414l-2.485 2.485a6.272 6.272 0 0 1-8.87-8.87l2.485-2.485a1 1 0 0 1 1.415 0Z" clip-rule="evenodd"/><path fill="#262626" fill-rule="evenodd" d="M8.188 15.814a1 1 0 0 1 0-1.414L14.4 8.186a1 1 0 0 1 1.414 1.415l-6.213 6.213a1 1 0 0 1-1.414 0Z" clip-rule="evenodd"/></svg>