<svg xmlns="http://www.w3.org/2000/svg" width="24" height="24" fill="none"><path fill="#262626" d="M14.6 9.36H21a2 2 0 0 1 2 2v2.105c0 .261-.051.52-.15.762l-3.095 7.514a1 1 0 0 1-.925.62H2a1 1 0 0 1-1-1v-10a1 1 0 0 1 1-1h3.482a1 1 0 0 0 .817-.424l5.453-7.725a.5.5 0 0 1 .632-.16l1.814.908a2.5 2.5 0 0 1 1.305 2.853L14.6 9.36ZM7 11.949v8.413h11.16L21 13.465v-2.104h-6.4a2 2 0 0 1-1.938-2.494l.903-3.548a.5.5 0 0 0-.261-.57l-.661-.33-4.71 6.672c-.25.354-.57.644-.933.857Zm-2 .413H3v8h2v-8Z"/><path fill="#E3FF34" d="M7 20.36v-8.412c.363-.213.683-.503.933-.857l4.71-6.673.66.33a.5.5 0 0 1 .262.571l-.903 3.548a2 2 0 0 0 1.938 2.494H21v2.104l-2.84 6.896H7ZM3 12.36h2v8H3v-8Z"/></svg>