<svg xmlns="http://www.w3.org/2000/svg" width="24" height="24" fill="none"><path fill="#262626" d="M9.4 14.64H3a2 2 0 0 1-2-2v-2.105c0-.261.051-.52.15-.762L4.246 2.26a1 1 0 0 1 .925-.62H22a1 1 0 0 1 1 1v10a1 1 0 0 1-1 1h-3.482a1 1 0 0 0-.817.424l-5.453 7.725a.5.5 0 0 1-.632.16l-1.814-.908a2.5 2.5 0 0 1-1.305-2.853L9.4 14.64Zm7.6-2.588V3.639H5.84L3 10.535v2.104h6.4a2 2 0 0 1 1.938 2.494l-.903 3.548a.5.5 0 0 0 .261.57l.661.33 4.71-6.672c.25-.354.57-.644.933-.857Zm2-.413h2v-8h-2v8Z"/><path fill="#E3FF34" d="M17 3.64v8.412a2.998 2.998 0 0 0-.933.857l-4.71 6.673-.66-.33a.5.5 0 0 1-.262-.571l.903-3.548A2 2 0 0 0 9.4 12.639H3v-2.104l2.84-6.896H17ZM21 11.64h-2v-8h2v8Z"/></svg>